<svg xmlns="http://www.w3.org/2000/svg" viewBox="0 0 629.58 814.04"><defs><style>.cls-1{fill:#218ee9;}.cls-2{fill:#ffb985;}.cls-3{fill:#f8981d;}.cls-4{fill:#e8790d;}.cls-5{fill:none;stroke:#ffb985;stroke-miterlimit:10;}.cls-6{fill:#ea9d69;}.cls-7{fill:#282f39;}</style></defs><g id="Layer_2" data-name="Layer 2"><g id="r-leg"><path class="cls-1" d="M451.56,57.91c.05.15,51.55-1.52,48.8,32.07a.39.39,0,0,1-.37.35H290a.37.37,0,0,1-.37-.42c.3-2,1.76-11.56,5.29-26a.37.37,0,0,0-.33-.46l-78.33-6L352,57.31a.37.37,0,0,1,.37.43l-2.5,14.2a.37.37,0,0,0,.57.37L389.5,46.15a.38.38,0,0,0,.06-.57L363.89,18.41a.36.36,0,0,0-.62.15c-.62,2.31-2.73,10.31-3.26,13.47a.37.37,0,0,1-.37.3l-119,.19c-.47,0-.47,0,0,0l75.06-6.18.24-.12C318,24,351.1-12.41,400.25,4.44c12,4.12,21.25,11.17,29.55,20.42,6.67,7.43,19.41,23.22,21.81,33.2"/><path class="cls-2" d="M296.08,103.59H454.72V129c0,3.4,9.36,8.68,7.49,22H448.59s-25.87,68.76-95.83,47.83C352.76,198.74,294.55,174.74,296.08,103.59Z"/><path class="cls-1" d="M353.58,259.84a23.87,23.87,0,0,0,7.52-11.91c8.63-33.14-30.16-42.52-42.55-32.09l-77.27,62.77A100.45,100.45,0,0,0,229,290.47L220.67,300h41.62a.11.11,0,0,0,.11-.08l3.38-14.39,26.89,27.24Z"/><polyline class="cls-3" points="238.81 280.69 164.08 280.69 164.08 294.61 82.76 300.35 220.68 300.01"/><polygon class="cls-1" points="213.36 325.88 209.97 339.42 232.59 363.84 198.55 387.5 195.82 402.65 253.87 402.65 266.97 331.67 252.84 341.03 255.74 325.88 213.36 325.88"/><polyline class="cls-3" points="213.36 325.88 66.93 324.86 164.08 327.8 163.95 344.27 62.46 350.78 202.25 350.78 205.44 335.59 209.97 339.42"/><polyline class="cls-3" points="198.55 387.5 191.91 391.25 195.82 375.59 79.57 374.74 163.82 379.84 163.99 396.52 81.1 402.65 195.82 402.65"/><path class="cls-3" d="M192.45,428l-126.16-.79,97.7,3.23v15.49h22.3S188,432.77,192.45,428Z"/><path class="cls-3" d="M325.71,284.07V446.23H251.65s-.48-12.35-10.4-17.53h18l-2.38,14,40-26.39-27.4-28.76-2.83,15.14H253.53l13-70.63,26.05-17.7.05-1.54Z"/><polygon class="cls-4" points="325.7 284.07 330.45 279.95 387.99 279.95 387.99 446.23 325.7 446.23 325.7 284.07"/><path class="cls-1" d="M400,239.84s22.34,23.35,10.32,95.88a1.24,1.24,0,0,0,.35,1.08l25.25,25.25a44.79,44.79,0,0,0,17.34,10.83,190.92,190.92,0,0,0,21.49,5.66c24,5.07,74.3,13.49,82.92,14.92a1.24,1.24,0,0,0,1.44-1.07l7-53.6a1.25,1.25,0,0,0-1-1.38l-92.39-17.7a1.23,1.23,0,0,1-.69-.39Z"/><path class="cls-2" d="M593,336.77c-10.4-.5-51.84,40.6,1.77,59.07,0,0-11.06-28.08,5.23-44.77"/><path class="cls-5" d="M601.15,350.91c7.75-2.94,9.38-6.72,9.59-9.33"/><path class="cls-2" d="M610.74,341.58a11.17,11.17,0,0,1,7-1c9.2,1.85,14,16.32,10.83,32.31s-13.28,27.46-22.48,25.61-14-16.31-10.83-32.31a46.52,46.52,0,0,1,5.88-15.27"/><path class="cls-6" d="M610.49,340.26c1,4.42-3.67,9.25-10.46,10.81s-13.11-.77-14.13-5.18,3.37-9.53,10.47-10.8C603.23,333.85,609.48,335.85,610.49,340.26Z"/><path class="cls-7" d="M251.94,468.18s.56,15.66,5.5,24,27.58,38.3,48,55.15c0,0-41.53,49-50.72,54.64s-151,57.19-151,57.19-18.21-4.08-34.72-66l132.76-43.24Z"/><path class="cls-7" d="M12.93,601.88S-10.19,651.39,5.4,730.71a3.23,3.23,0,0,0,2.38,2.52c6.63,1.66,28.51,3.75,47.53-32.79,15-28.92,14-54.25,11.53-68.06a31.75,31.75,0,0,0-12.08-19.89C46.28,606.11,31.57,601.24,12.93,601.88Z"/><path class="cls-7" d="M380.08,446.23s53.36,85.95,60.85,96.16,15.15,25.88,15.15,25.88,5.28,9.87,10.38,55.49c4.32,38.56,8.51,78.58,9.71,90a4.83,4.83,0,0,1-2.62,4.81c-9.29,4.75-39.41,18.47-74.68,17.06a2.17,2.17,0,0,1-2.07-1.92L380.21,591.36a2.85,2.85,0,0,0-1-1.87l-51.3-43s-56.6-49.53-58.89-74c-1.79-19-.8-24.3-.27-25.72a.75.75,0,0,1,.71-.49Z"/><path class="cls-7" d="M405.73,814c10.54-.19,78.39-2.4,124.31-28.34a2.76,2.76,0,0,0,1.36-2.89c-1.66-9.89-13.92-52.89-100.34-35.82,0,0-47.27,9.39-27.2,65.75A2,2,0,0,0,405.73,814Z"/><path class="cls-6" d="M241.25,428.7h-2.89a29,29,0,0,1,3.32,29s8.12.52,10-11.49C251.65,446.23,251.31,433.89,241.25,428.7Z"/><path class="cls-2" d="M238.62,428.7a30.52,30.52,0,0,1,5.51,17.6c0,16.58-12.95,30-28.92,30s-28.92-13.45-28.92-30a30.67,30.67,0,0,1,6-18.36"/><path class="cls-2" d="M192.32,427.94l46.3.72"/></g></g></svg>